<svg viewBox="0 0 240 240" xmlns="http://www.w3.org/2000/svg" aria-label="avatar placeholder rank-s">
  <defs>
    <linearGradient id="ah2" x1="0" y1="0" x2="0" y2="1">
      <stop offset="0%" stop-color="#fff0a0"/>
      <stop offset="100%" stop-color="#ffc56b"/>
    </linearGradient>
  </defs>
  <rect x="2" y="2" width="236" height="236" fill="#fff7f0" stroke="#d4b8c8" stroke-width="1.5" stroke-dasharray="5 5" rx="20"/>
  <!-- きらめき -->
  <g fill="#ffd66d">
    <path d="M 30 50 l 2 -8 l 2 8 l 8 2 l -8 2 l -2 8 l -2 -8 l -8 -2 z"/>
    <path d="M 200 60 l 2 -8 l 2 8 l 8 2 l -8 2 l -2 8 l -2 -8 l -8 -2 z"/>
    <path d="M 200 195 l 1.5 -6 l 1.5 6 l 6 1.5 l -6 1.5 l -1.5 6 l -1.5 -6 l -6 -1.5 z"/>
  </g>
  <circle cx="120" cy="125" r="92" fill="url(#ah2)"/>
  <circle cx="120" cy="130" r="72" fill="#fff0e4"/>
  <path d="M 48 115 Q 50 60 120 50 Q 190 60 192 115 Q 178 90 152 90 L 142 110 L 130 88 L 120 110 L 110 88 L 98 110 L 88 90 Q 62 92 48 115 Z" fill="url(#ah2)"/>
  <ellipse cx="92" cy="158" rx="13" ry="8" fill="#ff9fb6" opacity="0.75"/>
  <ellipse cx="148" cy="158" rx="13" ry="8" fill="#ff9fb6" opacity="0.75"/>
  <!-- スター目 -->
  <g fill="#e89a00" transform="translate(96 142)">
    <path d="M 0 -11 L 2.6 -2.6 L 11 0 L 2.6 2.6 L 0 11 L -2.6 2.6 L -11 0 L -2.6 -2.6 Z"/>
  </g>
  <g fill="#e89a00" transform="translate(144 142)">
    <path d="M 0 -11 L 2.6 -2.6 L 11 0 L 2.6 2.6 L 0 11 L -2.6 2.6 L -11 0 L -2.6 -2.6 Z"/>
  </g>
  <!-- 大喜びの口 -->
  <path d="M 100 168 Q 120 188 140 168 Q 132 180 120 180 Q 108 180 100 168 Z" fill="#ff6680" stroke="#7a4658" stroke-width="2.4" stroke-linejoin="round"/>
  <!-- ミニ王冠 -->
  <path d="M 80 56 L 92 38 L 105 54 L 120 32 L 135 54 L 148 38 L 160 56 Z" fill="#ffd66d" stroke="#c98a00" stroke-width="1.5"/>
  <text x="120" y="226" text-anchor="middle" font-size="11" font-weight="700" fill="#a0827a" font-family="sans-serif" letter-spacing="1">PLACEHOLDER · avatar-rank-s</text>
</svg>
