<svg viewBox="0 0 240 240" xmlns="http://www.w3.org/2000/svg" aria-label="avatar placeholder pointing">
  <defs>
    <linearGradient id="ah1" x1="0" y1="0" x2="0" y2="1">
      <stop offset="0%" stop-color="#fbd5e8"/>
      <stop offset="100%" stop-color="#d6b3e5"/>
    </linearGradient>
  </defs>
  <rect x="2" y="2" width="236" height="236" fill="#fff7f0" stroke="#d4b8c8" stroke-width="1.5" stroke-dasharray="5 5" rx="20"/>
  <circle cx="120" cy="125" r="92" fill="url(#ah1)"/>
  <circle cx="120" cy="130" r="72" fill="#fff0e4"/>
  <path d="M 48 115 Q 50 60 120 50 Q 190 60 192 115 Q 178 90 152 90 L 142 110 L 130 88 L 120 110 L 110 88 L 98 110 L 88 90 Q 62 92 48 115 Z" fill="url(#ah1)"/>
  <ellipse cx="92" cy="155" rx="12" ry="7" fill="#ffc9d6" opacity="0.7"/>
  <ellipse cx="148" cy="155" rx="12" ry="7" fill="#ffc9d6" opacity="0.7"/>
  <!-- 目を右に寄せる (scanning 表情) -->
  <ellipse cx="100" cy="142" rx="8" ry="11" fill="#5a3a4a"/>
  <ellipse cx="148" cy="142" rx="8" ry="11" fill="#5a3a4a"/>
  <circle cx="103" cy="139" r="3" fill="#fff"/>
  <circle cx="151" cy="139" r="3" fill="#fff"/>
  <path d="M 108 170 Q 120 178 132 170" stroke="#7a4658" stroke-width="2.6" fill="none" stroke-linecap="round"/>
  <!-- キラリ -->
  <g transform="translate(195 75)" fill="#ffd66d">
    <path d="M 0 -8 L 2 -2 L 8 0 L 2 2 L 0 8 L -2 2 L -8 0 L -2 -2 Z"/>
  </g>
  <text x="120" y="226" text-anchor="middle" font-size="11" font-weight="700" fill="#a0827a" font-family="sans-serif" letter-spacing="1">PLACEHOLDER · avatar-pointing</text>
</svg>
