<svg viewBox="0 0 240 340" xmlns="http://www.w3.org/2000/svg" aria-label="character placeholder rank-c">
  <defs>
    <linearGradient id="hairC" x1="0" y1="0" x2="0" y2="1">
      <stop offset="0%" stop-color="#fbd5e8"/>
      <stop offset="100%" stop-color="#d6b3e5"/>
    </linearGradient>
    <linearGradient id="dressC" x1="0" y1="0" x2="0" y2="1">
      <stop offset="0%" stop-color="#fff7d6"/>
      <stop offset="100%" stop-color="#ffd6c2"/>
    </linearGradient>
  </defs>
  <rect x="2" y="2" width="236" height="336" fill="#fff7f0" stroke="#d4b8c8" stroke-width="1.5" stroke-dasharray="5 5" rx="14"/>
  <ellipse cx="48" cy="200" rx="22" ry="68" fill="url(#hairC)" transform="rotate(-12 48 200)"/>
  <ellipse cx="192" cy="200" rx="22" ry="68" fill="url(#hairC)" transform="rotate(12 192 200)"/>
  <path d="M 70 260 Q 75 200 120 195 Q 165 200 170 260 L 175 305 L 65 305 Z" fill="url(#dressC)" stroke="#e8b8b8" stroke-width="1.2"/>
  <rect x="108" y="180" width="24" height="22" rx="5" fill="#ffeadd"/>
  <circle cx="120" cy="135" r="62" fill="#fff0e4"/>
  <path d="M 62 132 Q 60 80 120 65 Q 180 80 178 132 Q 168 100 145 100 L 138 120 L 128 100 L 118 122 L 108 100 L 95 120 L 88 100 Q 72 102 62 132 Z" fill="url(#hairC)"/>
  <path d="M 60 125 Q 56 165 70 195" fill="url(#hairC)" opacity="0.92"/>
  <path d="M 180 125 Q 184 165 170 195" fill="url(#hairC)" opacity="0.92"/>
  <ellipse cx="88" cy="150" rx="9" ry="5" fill="#ffc9d6" opacity="0.6"/>
  <ellipse cx="152" cy="150" rx="9" ry="5" fill="#ffc9d6" opacity="0.6"/>
  <!-- Tilted head ; ; mild closed eyes -->
  <path d="M 88 138 Q 96 144 104 138" stroke="#5a3a4a" stroke-width="2.2" fill="none" stroke-linecap="round"/>
  <path d="M 136 138 Q 144 144 152 138" stroke="#5a3a4a" stroke-width="2.2" fill="none" stroke-linecap="round"/>
  <!-- Encouraging slight smile -->
  <path d="M 112 162 Q 120 166 128 162" stroke="#7a4658" stroke-width="2" fill="none" stroke-linecap="round"/>
  <!-- Tiny sweat drop -->
  <path d="M 166 110 Q 170 120 174 110 Q 170 116 166 110 Z" fill="#a0d8ff" stroke="#6a9ec5" stroke-width="0.8"/>
  <text x="120" y="328" text-anchor="middle" font-size="11" font-weight="700" fill="#a0827a" font-family="sans-serif" letter-spacing="2">PLACEHOLDER · rank-c</text>
</svg>
